<svg xmlns="http://www.w3.org/2000/svg" width="308" height="44" viewBox="0 0 308 44">
    <defs>
        <linearGradient id="a" x1="2.218%" x2="99.115%" y1="38.212%" y2="85.923%">
            <stop offset="0%" stop-color="#3F4FA7"/>
            <stop offset="43.267%" stop-color="#9245BA"/>
            <stop offset="53.117%" stop-color="#E42683"/>
            <stop offset="78.442%" stop-color="#F71F76"/>
            <stop offset="100%" stop-color="#D8125C"/>
        </linearGradient>
    </defs>
    <g fill="none" fill-rule="evenodd">
        <path fill="#3643A0" d="M37.377 41.74H30.14L7 4h14.498c9.668 0 15.23 4.69 15.23 12.885 0 6.039-1.411 10.298-6.434 12.239l7.083 12.616zM27.377 41.74H23.14l-7.41-12.085-2.545-4.151-2-3.262L0 4h4z"/>
        <path fill="#3643A0" d="M27.377 41.74H23.14l-7.41-12.085-2.545-4.151-2-3.262L0 4h4z"/>
        <path fill="#3643A0" d="M27.377 41.74H23.14L0 4h4z"/>
        <path fill="url(#a)" d="M74.671 10.132c6.804 0 11.552 5.022 11.552 12.19 0 7.124-4.657 12.1-11.46 12.1-4.292 0-7.58-1.963-9.36-5.296v14.018H61.84V10.269h3.561v5.16c1.781-3.334 5.069-5.297 9.27-5.297zm-.639 21.14c5.023 0 8.584-3.79 8.584-9.04 0-5.206-3.561-9.041-8.584-9.041-5.068 0-8.63 3.79-8.63 9.04 0 5.297 3.562 9.041 8.63 9.041zm36.94-21.003h3.56v24.017h-3.56v-5.114c-1.782 3.333-5.069 5.296-9.315 5.296-6.85 0-11.598-5.068-11.598-12.237 0-7.123 4.703-12.145 11.46-12.145 4.338-.046 7.626 1.918 9.452 5.296V10.27zm-8.63 21.14c4.748 0 8.218-3.333 8.63-8.173V21.41c-.412-4.84-3.882-8.22-8.63-8.22-5.114 0-8.722 3.836-8.722 9.133 0 5.296 3.608 9.086 8.721 9.086zm33.88-21.277c6.803 0 11.551 5.022 11.551 12.19 0 7.124-4.657 12.1-11.46 12.1-4.292 0-7.58-1.963-9.36-5.296v14.018h-3.562V10.269h3.561v5.16c1.781-3.334 5.069-5.297 9.27-5.297zm-.64 21.14c5.023 0 8.584-3.79 8.584-9.04 0-5.206-3.561-9.041-8.584-9.041-5.068 0-8.63 3.79-8.63 9.04 0 5.297 3.562 9.041 8.63 9.041zm28.446.183c2.968 0 5.57-1.279 7.671-3.836l2.146 1.918c-2.648 3.288-6.027 4.886-10.045 4.886-7.169 0-12.191-4.977-12.191-12.192 0-6.986 4.748-12.054 11.871-12.1 5.936-.045 10.228 3.516 11.005 9.36L155.81 25.84c1.232 3.47 4.292 5.616 8.218 5.616zm-.365-18.31c-5.068 0-8.493 3.379-8.493 8.95 0 .365 0 .684.046 1.05l15.707-5.434c-1.233-3.06-3.835-4.566-7.26-4.566zm20.228 2.466v-5.342h-3.562v24.017h3.562V21.5c.41-4.84 3.561-7.99 8.63-7.9v-3.47c-4.064.046-7.032 1.964-8.63 5.48zm31.916-5.342h3.561v24.017h-3.561v-5.114c-1.78 3.333-5.068 5.296-9.315 5.296-6.849 0-11.597-5.068-11.597-12.237 0-7.123 4.703-12.145 11.46-12.145 4.338-.046 7.626 1.918 9.452 5.296V10.27zm-8.63 21.14c4.749 0 8.219-3.333 8.63-8.173V21.41c-.411-4.84-3.881-8.22-8.63-8.22-5.114 0-8.72 3.836-8.72 9.133 0 5.296 3.606 9.086 8.72 9.086zm30.73-1.507c-1.325.777-2.603 1.188-3.79 1.233-2.1 0-3.242-1.598-3.242-5.022V13.784h7.625V11h-7.625V4.698h-3.516v22.008c0 5.16 2.557 7.762 6.21 7.717 1.78 0 3.653-.64 5.388-1.781l-1.05-2.74zM246.033.954c-1.324 0-2.329 1.004-2.329 2.42 0 1.37 1.005 2.42 2.329 2.42 1.324 0 2.329-1.05 2.329-2.42 0-1.416-1.005-2.42-2.329-2.42zm-1.735 9.315v24.017h3.516V10.269h-3.516zm25.067-.137c-4.383.045-7.625 1.78-9.314 5.433V10.27h-3.562v24.017h3.562V21.41c.41-4.658 3.333-7.808 8.081-7.854 4.247 0 6.804 2.557 6.804 6.85v13.88h3.561V19.492c0-5.845-3.378-9.36-9.132-9.36zm34.474.137h3.561v21.505c0 7.032-4.794 11.507-12.1 11.461-4.337-.091-8.173-2.329-9.68-5.799l2.055-2.146c1.324 2.786 4.11 4.749 7.488 4.886 5.251.046 8.676-3.242 8.676-8.31v-3.653c-1.69 3.196-4.795 5.023-8.858 5.023-6.484 0-10.959-4.795-10.959-11.598 0-6.758 4.43-11.46 10.867-11.506 4.11-.046 7.215 1.826 8.95 5.022V10.27zm-8.22 20.044c4.795 0 8.22-3.607 8.22-8.584 0-5.022-3.425-8.63-8.22-8.63-4.84 0-8.218 3.608-8.264 8.63.046 4.977 3.425 8.584 8.265 8.584z"/>
    </g>
</svg>
